HIERARCHY
ROOT Hips
{
	OFFSET 0.000000 0.000000 0.000000
	CHANNELS 6 Xposition Yposition Zposition Yrotation Xrotation Zrotation
	JOINT Chest
	{
		OFFSET 0.000000 -0.009281 11.569106
		CHANNELS 3 Yrotation Xrotation Zrotation
		JOINT Chest2
		{
			OFFSET -0.000000 0.016865 9.269641
			CHANNELS 3 Yrotation Xrotation Zrotation
			JOINT Chest3
			{
				OFFSET -0.000000 0.000001 8.374491
				CHANNELS 3 Yrotation Xrotation Zrotation
				JOINT Chest4
				{
					OFFSET -0.000000 0.000001 8.374493
					CHANNELS 3 Yrotation Xrotation Zrotation
					JOINT Neck
					{
						OFFSET -0.000000 0.000002 12.152554
						CHANNELS 3 Yrotation Xrotation Zrotation
						JOINT Head
						{
							OFFSET -0.000000 0.040101 7.802319
							CHANNELS 3 Yrotation Xrotation Zrotation
							End Site
							{
								OFFSET -0.000000 0.020947 14.853096
							}
						}
					}
					JOINT RightCollar
					{
						OFFSET 2.894404 0.000001 6.791374
						CHANNELS 3 Yrotation Xrotation Zrotation
						JOINT RightShoulder
						{
							OFFSET 13.574684 0.000001 0.000000
							CHANNELS 3 Yrotation Xrotation Zrotation
							JOINT RightElbow
							{
								OFFSET 23.923903 0.000002 0.000000
								CHANNELS 3 Yrotation Xrotation Zrotation
								JOINT RightWrist
								{
									OFFSET 19.846718 0.012767 0.000000
									CHANNELS 3 Yrotation Xrotation Zrotation
									End Site
									{
										OFFSET 14.973145 0.000001 0.000000
									}
								}
							}
						}
					}
					JOINT LeftCollar
					{
						OFFSET -2.894404 0.000001 6.791374
						CHANNELS 3 Yrotation Xrotation Zrotation
						JOINT LeftShoulder
						{
							OFFSET -13.574684 -0.000001 0.000000
							CHANNELS 3 Yrotation Xrotation Zrotation
							JOINT LeftElbow
							{
								OFFSET -23.923903 -0.000002 0.000000
								CHANNELS 3 Yrotation Xrotation Zrotation
								JOINT LeftWrist
								{
									OFFSET -19.846718 0.012763 0.000000
									CHANNELS 3 Yrotation Xrotation Zrotation
									End Site
									{
										OFFSET -14.973145 -0.000001 0.000000
									}
								}
							}
						}
					}
				}
			}
		}
	}
	JOINT RightHip
	{
		OFFSET 9.469263 0.004643 0.045487
		CHANNELS 3 Yrotation Xrotation Zrotation
		JOINT RightKnee
		{
			OFFSET 0.000000 0.002661 -40.478676
			CHANNELS 3 Yrotation Xrotation Zrotation
			JOINT RightAnkle
			{
				OFFSET 0.000000 0.049106 -35.224068
				CHANNELS 3 Yrotation Xrotation Zrotation
				JOINT RightToe
				{
					OFFSET -0.000001 12.539529 -6.151390
					CHANNELS 3 Yrotation Xrotation Zrotation
					End Site
					{
						OFFSET -0.000001 5.044994 -1.291870
					}
				}
			}
		}
	}
	JOINT LeftHip
	{
		OFFSET -9.469263 0.004641 0.045487
		CHANNELS 3 Yrotation Xrotation Zrotation
		JOINT LeftKnee
		{
			OFFSET 0.000000 0.002661 -40.478676
			CHANNELS 3 Yrotation Xrotation Zrotation
			JOINT LeftAnkle
			{
				OFFSET 0.000000 0.049106 -35.224068
				CHANNELS 3 Yrotation Xrotation Zrotation
				JOINT LeftToe
				{
					OFFSET -0.000001 12.539529 -6.151390
					CHANNELS 3 Yrotation Xrotation Zrotation
					End Site
					{
						OFFSET -0.000001 5.044994 -1.291870
					}
				}
			}
		}
	}
}
MOTION
Frames: 14
Frame Time: 0.016667
99.464523 100.576004 80.064079 -13.284214 9.601213 33.868319 6.972229 -1.296958 -2.910979 2.653321 -0.127543 -1.670786 2.653322 -0.127543 -1.670784 1.989660 -0.102914 -1.252563 9.792062 -17.863829 -10.055206 14.642693 3.356656 -15.215363 7.996415 -0.620872 -1.986236 46.214006 -11.361503 4.484289 -10.682537 -38.180874 -9.281649 -13.092177 -13.403345 1.672047 -10.040497 -2.321537 -1.248789 -86.618007 -3.314156 -7.548404 -4.113680 15.108607 -10.137579 19.431664 13.663845 -32.137314 19.072497 -0.070616 8.204296 5.826321 -7.253953 -7.245070 -2.169595 8.841862 0.274382 0.869796 1.370056 -0.125834 10.398864 25.756095 -6.919930 -0.507776 -45.409977 8.971784 15.419360 -13.540207 -3.713737 -14.498455 33.068945 -4.703597 
98.805916 101.682022 79.985535 -13.105785 9.382645 35.077376 6.832672 -1.328848 -2.434308 2.581866 -0.204135 -1.453289 2.581865 -0.204136 -1.453287 1.935924 -0.159246 -1.089122 9.745299 -17.639998 -10.176224 14.504728 3.771914 -15.444849 8.289861 -1.728448 -1.671861 46.505932 -11.048469 7.741584 -10.936258 -38.652922 -9.195644 -14.283516 -13.737790 2.084960 -9.875298 -2.063928 -1.116295 -86.897642 -2.182641 -6.499803 -2.684805 14.846509 -8.311406 21.048691 13.995487 -32.818632 18.838124 -0.811302 7.369299 5.975167 -6.987179 -6.980584 -2.545985 9.469786 -0.177085 0.755873 1.264192 -0.086826 9.870338 28.001820 -6.696827 -1.361278 -42.920875 9.671646 14.780244 -12.514038 -3.243362 -12.435544 27.811876 -3.423444 
98.109482 102.809006 79.938248 -12.814821 9.116737 36.156402 6.667765 -1.286765 -1.978843 2.506653 -0.243931 -1.262800 2.506653 -0.243931 -1.262798 1.879491 -0.188132 -0.946117 9.590088 -17.574029 -10.237551 14.194783 3.888909 -15.608365 8.542265 -2.045961 -1.644704 46.791939 -11.568859 10.779860 -11.040479 -39.049131 -9.272141 -15.594268 -13.679760 2.471715 -9.798110 -1.878120 -0.920233 -87.098907 -0.777104 -5.220483 -1.419002 14.694643 -6.593565 22.574561 14.024731 -33.418128 18.499053 -1.602884 6.692486 6.124261 -6.779791 -6.865605 -2.851098 9.997755 -0.456907 0.638891 1.269239 -0.071207 9.312088 29.743944 -5.923327 -1.701275 -39.855315 10.029330 13.937877 -11.931741 -3.123527 -10.175094 22.927883 -2.342958 
97.363274 103.904633 79.910400 -12.453913 8.668860 37.304854 6.409766 -1.015742 -1.762471 2.425555 -0.254858 -1.104503 2.425556 -0.254859 -1.104502 1.818710 -0.195531 -0.827375 9.332940 -17.648442 -10.221450 13.730929 3.739473 -15.669224 8.763769 -1.831167 -1.667601 47.229860 -12.505359 13.587750 -11.101089 -39.604292 -9.407488 -16.867480 -13.610923 2.817570 -9.830874 -1.747600 -0.631911 -87.150591 0.633285 -3.710930 -0.253338 14.944415 -5.021404 23.754626 13.779176 -33.841296 17.984394 -2.253520 5.901452 6.266007 -6.668253 -6.869482 -3.097976 10.492050 -0.497827 0.560579 1.328714 -0.071124 8.621579 31.149747 -4.926796 -1.686704 -35.994472 10.132605 12.927380 -12.173672 -3.563372 -7.685594 18.570171 -1.439903 
96.521378 105.006508 79.904839 -11.906901 8.305101 38.269550 6.077837 -0.842680 -1.509644 2.331674 -0.264448 -0.948736 2.331675 -0.264448 -0.948740 1.748348 -0.201959 -0.710559 9.021461 -17.794670 -10.159149 13.187232 3.453128 -15.665189 8.963536 -1.756906 -1.693551 47.732739 -13.299622 16.578963 -11.055018 -40.327653 -9.526794 -17.885713 -13.651297 3.103669 -9.883134 -1.735404 -0.406154 -87.072174 1.935307 -2.157899 1.000125 15.444562 -3.433913 24.396742 13.662867 -34.063666 17.342704 -3.129235 4.828360 6.341706 -6.691724 -6.566762 -3.254820 10.902696 -0.339595 0.498349 1.480640 -0.116338 7.976674 31.934413 -3.748589 -1.643218 -31.678332 9.955278 12.061900 -13.142276 -4.110877 -5.403253 14.829104 -0.835492 
95.574692 106.107246 79.919334 -11.208397 8.008557 39.113659 5.670363 -0.775670 -1.278088 2.229816 -0.315585 -0.782191 2.229817 -0.315585 -0.782187 1.671958 -0.239547 -0.585497 8.686830 -17.923330 -10.055146 12.614624 3.196766 -15.590795 9.093323 -2.139796 -1.808219 48.137920 -13.886261 20.165672 -10.874043 -41.098218 -9.520577 -18.484913 -13.654445 3.200632 -9.905464 -1.542272 -0.175342 -86.853068 3.010573 -0.422318 2.367495 15.853012 -1.771970 24.495888 13.844388 -34.009011 16.598601 -4.191232 3.381565 6.346687 -6.844639 -5.737085 -3.367057 11.201781 -0.230134 0.457656 1.729552 -0.121411 7.270381 32.074503 -2.896230 -1.791953 -26.981909 9.657775 10.887777 -14.334673 -4.073222 -3.012934 11.245205 -0.430272 
94.535591 107.215073 79.956352 -10.509514 7.810859 39.864812 5.357512 -0.728307 -1.149536 2.127237 -0.411286 -0.621214 2.127238 -0.411286 -0.621205 1.595005 -0.310631 -0.464477 8.302879 -18.027033 -9.888001 11.971442 2.982710 -15.415414 9.203210 -2.691774 -1.902946 48.285237 -14.735035 23.933108 -10.798117 -41.595330 -9.095168 -18.782103 -13.584147 3.004133 -9.947020 -1.325702 0.046258 -86.547608 4.147642 1.339362 3.831394 15.871251 -0.064045 24.379938 14.070152 -33.741858 15.899470 -5.378506 1.673126 6.241336 -7.087372 -4.568165 -3.326676 11.350486 -0.014992 0.381994 2.091572 -0.150158 6.700705 31.606533 -2.751241 -2.150596 -21.918994 9.639281 8.997892 -15.607320 -3.453987 -0.237547 7.764492 -0.051785 
93.351425 108.346909 80.008286 -9.555453 7.782123 40.290548 4.951753 -0.935651 -0.837272 2.002624 -0.561276 -0.448506 2.002623 -0.561277 -0.448512 1.501545 -0.422432 -0.334550 7.924050 -18.097469 -9.683611 11.348190 2.829989 -15.168397 9.477329 -2.831209 -1.967870 48.121739 -16.177829 27.387937 -10.759874 -41.610230 -8.301806 -19.203543 -13.579163 2.814061 -9.851441 -1.167659 0.180758 -86.218366 5.233361 3.031506 5.250483 15.801545 1.617612 24.332040 13.799986 -33.298214 15.100467 -6.960750 -0.000861 5.977106 -7.409922 -3.128135 -3.121660 11.411562 0.227194 0.288399 2.478041 -0.140778 6.265937 30.173399 -3.033741 -2.514226 -16.547942 10.146527 7.003448 -16.708268 -2.458719 1.704046 3.189226 -0.013314 
92.061928 109.508720 80.078476 -8.489511 7.792835 40.573933 4.500685 -1.200757 -0.490222 1.861058 -0.757628 -0.251071 1.861058 -0.757629 -0.251072 1.395463 -0.568992 -0.185992 7.553389 -18.139282 -9.465663 10.742669 2.730737 -14.892729 9.844158 -2.731094 -1.981087 47.824821 -17.654994 30.582257 -10.711469 -41.054058 -7.099739 -19.754261 -13.630882 2.743548 -9.638897 -0.823955 0.273555 -85.930118 6.317276 5.007264 6.491764 15.745092 2.970480 24.479885 12.753638 -32.622940 14.281662 -8.706733 -1.722667 5.505074 -7.770156 -1.441069 -2.710455 11.310452 0.372237 0.153458 2.936073 -0.044032 5.986223 27.958828 -3.384913 -2.425779 -11.131495 10.975433 4.803216 -17.441827 -1.837802 3.063051 -0.084698 -0.029611 
90.643074 110.716408 80.161629 -7.292843 7.739880 40.812030 3.990821 -1.436694 -0.202402 1.722426 -0.945133 -0.053729 1.722427 -0.945133 -0.053723 1.291708 -0.709008 -0.037631 7.133045 -18.218983 -9.226798 10.055247 2.558782 -14.595431 10.166892 -2.993056 -1.843639 47.683326 -18.200069 33.658598 -10.704515 -40.092654 -5.165847 -20.089523 -13.548718 2.453621 -9.488314 -0.620338 0.320948 -85.562989 7.647774 7.096878 7.451953 15.608215 3.942932 24.595550 11.144593 -31.802570 13.333507 -10.583083 -3.636919 4.842994 -8.111553 0.463903 -1.989053 11.084657 0.588601 -1.128954 4.806290 0.042477 5.807299 24.907207 -3.021654 -2.298148 -5.720707 11.438534 2.933856 -17.660491 -1.886024 3.966846 -2.583626 -0.070932 
89.068932 111.983482 80.263039 -5.975299 7.644101 41.018722 3.456954 -1.720842 0.089702 1.579044 -1.094484 0.141907 1.579044 -1.094484 0.141902 1.184501 -0.820503 0.109251 6.671037 -18.333201 -8.993187 9.291946 2.320744 -14.321347 10.413901 -3.166426 -1.766593 48.128375 -17.778813 36.171111 -10.654155 -39.225165 -2.253443 -20.145064 -13.310844 1.770203 -9.327373 -0.720208 0.319381 -85.042665 9.058460 9.008536 8.085910 15.453745 4.767706 24.363899 9.337722 -30.998284 12.174121 -12.559378 -5.357950 4.222419 -8.485131 2.043308 -1.008371 10.649488 1.035234 -2.388522 7.041443 0.062859 5.347103 21.047612 -2.070249 -2.164511 -0.512281 10.502724 1.317464 -17.040181 -1.764946 4.269889 -4.662945 -0.092919 
87.383301 113.248970 80.400391 -4.670615 7.590009 41.093956 3.063450 -2.064410 0.578979 1.445460 -1.177020 0.316086 1.445460 -1.177021 0.316084 1.084666 -0.882025 0.239840 6.160939 -18.482780 -8.792825 8.432237 2.014074 -14.123349 10.618131 -3.096149 -1.807548 49.110665 -16.647787 37.974752 -10.396216 -38.902247 1.507475 -20.058672 -12.970638 0.958429 -9.148997 -0.755380 0.491464 -84.467986 10.283376 11.044813 8.584271 15.250441 5.530805 23.617647 7.501551 -30.170243 10.824585 -14.377878 -6.412950 3.812353 -9.221120 3.144664 0.115764 9.907380 1.543982 -3.668928 9.682437 -0.080246 4.439919 17.812220 -1.088109 -1.982287 2.171057 8.567847 -0.335441 -15.259783 -0.835538 4.268780 -5.719810 -0.194702 
85.683716 114.425697 80.566399 -3.525693 7.476478 41.521208 2.863443 -2.155438 0.794607 1.332637 -1.207686 0.427156 1.332637 -1.207685 0.427165 1.000285 -0.904838 0.322999 5.593776 -18.689715 -8.598786 7.470560 1.596896 -13.954082 10.747710 -3.019133 -1.854975 50.435449 -15.207864 39.180789 -10.090178 -38.959771 5.958932 -19.926177 -12.695374 0.342566 -9.019725 -0.663849 0.982239 -83.771908 11.334160 13.203578 9.061933 14.959433 6.307436 22.446136 5.704415 -29.182724 9.465733 -15.725950 -7.157845 3.653724 -10.371156 3.785227 1.235900 8.884760 1.896569 -4.944340 12.708662 -0.311957 3.257908 16.120227 -0.430785 -1.880136 1.849449 6.769257 -1.530189 -13.573356 -0.137485 4.015972 -4.998654 -0.221141 
83.955902 115.608025 80.741524 -2.277917 7.430275 42.046030 2.705006 -2.400373 1.051388 1.225692 -1.191217 0.496606 1.225693 -1.191218 0.496608 0.920206 -0.892422 0.374836 5.031299 -18.888475 -8.428686 6.510287 1.193698 -13.824723 10.860897 -2.760443 -1.906520 51.766366 -14.008262 39.787194 -9.805913 -38.649609 10.817097 -19.969387 -12.557789 0.083618 -8.824766 -0.478437 1.715154 -82.932662 12.290477 15.291125 9.505063 14.534050 7.103083 20.990814 3.982942 -27.857514 8.097519 -17.010470 -7.395032 3.564732 -11.791261 4.043054 2.355711 7.597266 2.001318 -6.193723 16.074785 -0.578131 2.148526 15.461759 0.123341 -1.966630 -0.845510 5.755799 -2.213151 -12.446761 -0.251203 3.584044 -2.920161 -0.085627 
